<?xml version="1.0" encoding="UTF-8"?>
<!-- Generator: visioncortex VTracer 0.6.1 -->
<svg version="1.1" xmlns="http://www.w3.org/2000/svg" width="1280" height="1280">
<path d="M0 0 C422.4 0 844.8 0 1280 0 C1280 422.4 1280 844.8 1280 1280 C857.6 1280 435.2 1280 0 1280 C0 857.6 0 435.2 0 0 Z " fill="#FBFDFD" transform="translate(0,0)"/>
<path d="M0 0 C0.87135271 -0.00226556 1.74270542 -0.00453111 2.64046276 -0.00686532 C5.56076754 -0.01319567 8.48102579 -0.01237651 11.40133667 -0.0115509 C13.49617065 -0.01454342 15.59100409 -0.01794616 17.68583679 -0.02172852 C23.38345583 -0.03057376 29.08105985 -0.03290715 34.77868509 -0.0335443 C38.34872372 -0.03425571 41.91875855 -0.036392 45.48879623 -0.03904152 C57.97543326 -0.04830404 70.46205961 -0.05237619 82.94869995 -0.05158997 C94.5299978 -0.05099231 106.11124859 -0.06148013 117.69253457 -0.07733363 C127.67004713 -0.09049749 137.64754452 -0.09577003 147.62506568 -0.09513456 C153.56767863 -0.0948817 159.51024997 -0.09761254 165.45285416 -0.10831261 C223.14354517 -0.20478002 285.62518805 0.24012097 329.84225464 43.07121277 C353.95900215 67.21254412 365.45099997 99.99117398 365.71725464 133.69621277 C365.52999867 155.14326253 361.28422338 177.93117381 349.34225464 196.13371277 C348.67065308 197.19074402 347.99905151 198.24777527 347.30709839 199.33683777 C335.89604824 216.63635322 320.33473438 230.05973924 302.34225464 240.13371277 C305.06768608 241.95066706 307.64610079 243.26897778 310.61178589 244.63761902 C343.03142709 259.76994424 372.58480078 280.24492896 385.58834839 314.97550964 C394.88645081 341.59313446 396.05536061 370.59629572 390.34225464 398.13371277 C390.20303589 398.80934265 390.06381714 399.48497253 389.92037964 400.18107605 C386.94343457 413.98734789 381.27059587 427.43178605 373.34225464 439.13371277 C372.74412964 440.02832214 372.14600464 440.92293152 371.52975464 441.84465027 C362.80228473 454.17550737 351.47533176 466.49912276 338.34225464 474.13371277 C337.23881714 474.79629089 336.13537964 475.45886902 334.99850464 476.14152527 C313.82360858 488.40022911 286.84831586 492.31108215 262.96725464 486.50871277 C240.06389897 480.35636297 219.36532373 466.13229655 207.34616089 445.41691589 C197.46806446 427.46575673 193.16768821 408.71745428 193.15475464 388.32121277 C193.14250854 387.28545105 193.13026245 386.24968933 193.11764526 385.18254089 C193.11571167 384.1906073 193.11377808 383.19867371 193.11178589 382.17668152 C193.107677 381.27973572 193.10356812 380.38278992 193.09933472 379.45866394 C193.34225464 377.13371277 193.34225464 377.13371277 195.34225464 374.13371277 C185.10634318 378.743664 177.37043783 387.60851957 170.57272339 396.33293152 C168.75783798 398.61186819 166.89092275 400.75994602 164.94381714 402.92277527 C147.04498355 423.28332586 135.11601853 451.64283329 130.34225464 478.13371277 C130.01225464 478.13371277 129.68225464 478.13371277 129.34225464 478.13371277 C128.34659437 470.41687514 128.42446179 463.33516587 129.46725464 455.63371277 C129.60558716 454.58981384 129.74391968 453.54591492 129.88644409 452.47038269 C133.9785504 423.49402539 145.00540728 396.01208843 163.34225464 373.13371277 C164.59271914 371.48823232 165.84275297 369.84242447 167.09225464 368.19621277 C169.60772737 364.89941896 172.37501056 362.03103652 175.34225464 359.13371277 C176.23299683 358.25715027 177.12373901 357.38058777 178.04147339 356.47746277 C196.27352262 338.95695322 217.56576249 327.04424525 240.35397339 316.42570496 C263.58640303 305.58325149 284.68861711 294.67823045 294.03121948 269.25920105 C299.93910916 251.56277823 298.65559809 229.42298981 296.34225464 211.13371277 C295.25686401 211.07312683 294.17147339 211.01254089 293.05319214 210.95011902 C291.60786978 210.86565213 290.16255781 210.78100726 288.71725464 210.69621277 C288.00440308 210.65689636 287.29155151 210.61757996 286.55709839 210.57707214 C285.85455933 210.53517761 285.15202026 210.49328308 284.42819214 210.45011902 C283.78930054 210.4134613 283.15040894 210.37680359 282.49215698 210.33903503 C280.34225464 210.13371277 280.34225464 210.13371277 277.60836792 209.62443542 C273.72683523 209.04124805 269.91340877 208.97169229 265.99850464 208.96574402 C265.20068573 208.96214371 264.40286682 208.9585434 263.58087158 208.95483398 C261.88022526 208.94933765 260.17956756 208.94672194 258.47891235 208.94676208 C256.71120703 208.9463938 254.94349842 208.94207767 253.17581177 208.9339447 C243.02001998 208.88971559 233.27289359 209.21628001 223.21725464 210.75871277 C212.09594011 212.28272106 204.33979326 207.6467651 194.80905151 202.41398621 C179.38082225 194.40669857 159.58976615 190.706141 142.34225464 190.13371277 C141.14987183 190.09375183 139.95748901 190.05379089 138.72897339 190.01261902 C113.41288609 189.45790901 87.73739296 195.04219223 65.13912964 206.56730652 C62.81724608 207.2992046 61.59669261 207.00044966 59.34225464 206.13371277 C57.62995216 204.51396718 55.97062202 202.83781817 54.34225464 201.13371277 C47.21280701 194.00426514 40.09869059 190.9545084 29.96725464 190.57121277 C19.43669855 190.90029265 10.95499957 194.4678885 3.31881714 201.74308777 C-4.50160721 211.20178283 -6.46263409 221.19452999 -5.65774536 233.13371277 C-4.92815662 235.8230108 -4.04729803 237.7019956 -2.65774536 240.13371277 C2.15763631 240.13371277 6.1162097 237.24598798 10.27389526 234.97746277 C14.48711589 232.77035 17.45506154 231.6426918 22.34225464 232.13371277 C21.64100464 232.66738464 20.93975464 233.20105652 20.21725464 233.75090027 C-6.41726749 255.82570801 -25.5220415 291.40931754 -31.65774536 325.13371277 C-31.98774536 325.13371277 -32.31774536 325.13371277 -32.65774536 325.13371277 C-33.94986377 319.19236279 -33.80590529 313.28961003 -33.80491638 307.24217224 C-33.80859307 306.03536985 -33.81226976 304.82856746 -33.81605786 303.5851953 C-33.82515754 300.24317795 -33.82978838 296.9012096 -33.83244717 293.55918455 C-33.83636156 289.95169537 -33.84593887 286.34422027 -33.85466003 282.73674011 C-33.87438929 274.03018676 -33.88448475 265.32363231 -33.89338782 256.61706221 C-33.89777528 252.51402755 -33.90314079 248.41099416 -33.90837669 244.30796051 C-33.92538309 230.66471754 -33.93987762 217.02147536 -33.94712543 203.37822342 C-33.94903522 199.84066517 -33.95095557 196.30310693 -33.95291138 192.76554871 C-33.95339512 191.88634285 -33.95387886 191.00713699 -33.95437726 190.10128853 C-33.96267908 175.85616113 -33.98802119 161.61111765 -34.02049205 147.36602691 C-34.05357668 132.7321264 -34.07157534 118.09826854 -34.07476968 103.46433043 C-34.07693314 95.25137226 -34.08565813 87.0385366 -34.11123085 78.82561493 C-34.13295678 71.83216555 -34.14097887 64.83886846 -34.13126407 57.84538916 C-34.12672522 54.27952029 -34.12858103 50.71396555 -34.14802551 47.14813995 C-34.1689555 43.2763597 -34.15865331 39.40501 -34.14549255 35.53318787 C-34.1564618 34.4146883 -34.16743105 33.29618874 -34.17873269 32.14379525 C-34.10285634 22.88310918 -31.93495586 14.5976378 -25.49758911 7.66886902 C-17.83615311 1.27620586 -9.66941616 -0.01845566 0 0 Z " fill="#000100" transform="translate(460.6577453613281,395.8662872314453)"/>
</svg>
